<svg xmlns="http://www.w3.org/2000/svg" xmlns:xlink="http://www.w3.org/1999/xlink" id="Capa_1" data-name="Capa 1" viewBox="93.25 56.33 890.04 242.68">
  <defs>
    <style>
      .cls-1 {
        fill: url(#Degradado_sin_nombre_17);
      }

      .cls-1, .cls-2, .cls-3, .cls-4, .cls-5, .cls-6, .cls-7, .cls-8, .cls-9, .cls-10 {
        stroke-width: 0px;
      }

      .cls-11 {
        mask: url(#mask-2);
      }

      .cls-12 {
        mask: url(#mask-3);
      }

      .cls-2 {
        fill: url(#Degradado_sin_nombre_22-4);
      }

      .cls-3 {
        fill: url(#Degradado_sin_nombre_136);
      }

      .cls-4 {
        fill: #fff;
      }

      .cls-5 {
        fill: url(#Degradado_sin_nombre_136-3);
      }

      .cls-6 {
        fill: url(#Degradado_sin_nombre_22-2);
      }

      .cls-13 {
        mask: url(#mask-1);
      }

      .cls-14 {
        mask: url(#mask);
      }

      .cls-7 {
        fill: url(#Degradado_sin_nombre_136-4);
      }

      .cls-8 {
        fill: url(#Degradado_sin_nombre_22);
      }

      .cls-9 {
        fill: url(#Degradado_sin_nombre_22-3);
      }

      .cls-10 {
        fill: url(#Degradado_sin_nombre_136-2);
      }
    </style>
    <radialGradient id="Degradado_sin_nombre_17" data-name="Degradado sin nombre 17" cx="197.55" cy="161.58" fx="197.55" fy="161.58" r="91.19" gradientUnits="userSpaceOnUse">
      <stop offset="0" stop-color="#5cbcab"/>
      <stop offset=".11" stop-color="#5abaaf"/>
      <stop offset=".72" stop-color="#4391ce"/>
    </radialGradient>
    <linearGradient id="Degradado_sin_nombre_136" data-name="Degradado sin nombre 136" x1="100.67" y1="190.27" x2="226.8" y2="64.14" gradientUnits="userSpaceOnUse">
      <stop offset=".2" stop-color="#fff"/>
      <stop offset=".3" stop-color="#e4e4e4"/>
      <stop offset=".53" stop-color="#a09fa0"/>
      <stop offset=".85" stop-color="#343334"/>
      <stop offset=".86" stop-color="#333233"/>
    </linearGradient>
    <mask id="mask" x="93.24" y="89.12" width="108.58" height="108.58" maskUnits="userSpaceOnUse">
      <path class="cls-3" d="m113.27,197.7c-5.13,0-10.25-1.96-14.16-5.87-7.82-7.82-7.82-20.5,0-28.32l68.52-68.52c7.82-7.83,20.5-7.83,28.32,0,7.82,7.82,7.82,20.5,0,28.32l-68.52,68.52c-3.91,3.91-9.04,5.87-14.16,5.87Z"/>
    </mask>
    <linearGradient id="Degradado_sin_nombre_22" data-name="Degradado sin nombre 22" x1="416.49" y1="-857.37" x2="416.49" y2="-994.33" gradientTransform="translate(-801.66 503.58) rotate(45)" gradientUnits="userSpaceOnUse">
      <stop offset="0" stop-color="#5cbcab"/>
      <stop offset="0" stop-color="#5abaaf"/>
      <stop offset=".45" stop-color="#4391ce"/>
    </linearGradient>
    <linearGradient id="Degradado_sin_nombre_136-2" data-name="Degradado sin nombre 136" x1="-3632.25" y1="2162.45" x2="-3506.12" y2="2036.32" gradientTransform="translate(-1935.27 -3340.67) rotate(-90)" xlink:href="#Degradado_sin_nombre_136"/>
    <mask id="mask-1" x="126.03" y="190.44" width="108.58" height="108.58" maskUnits="userSpaceOnUse">
      <path class="cls-10" d="m234.61,278.99c0,5.13-1.96,10.25-5.87,14.16-7.82,7.82-20.5,7.82-28.32,0l-68.52-68.52c-7.83-7.82-7.83-20.5,0-28.32,7.82-7.82,20.5-7.82,28.32,0l68.52,68.52c3.91,3.91,5.87,9.04,5.87,14.16Z"/>
    </mask>
    <linearGradient id="Degradado_sin_nombre_22-2" data-name="Degradado sin nombre 22" x1="-828.54" y1="3176.74" x2="-828.54" y2="3039.79" gradientTransform="translate(-1431.69 -2539.01) rotate(-45)" xlink:href="#Degradado_sin_nombre_22"/>
    <linearGradient id="Degradado_sin_nombre_136-3" data-name="Degradado sin nombre 136" x1="-5632.91" y1="-1619.54" x2="-5506.77" y2="-1745.67" gradientTransform="translate(-5304.41 -1454.46) rotate(-180)" xlink:href="#Degradado_sin_nombre_136"/>
    <mask id="mask-2" x="227.35" y="157.64" width="108.58" height="108.58" maskUnits="userSpaceOnUse">
      <path class="cls-5" d="m315.89,157.64c5.13,0,10.25,1.96,14.16,5.87,7.82,7.82,7.82,20.5,0,28.32l-68.52,68.52c-7.82,7.83-20.5,7.83-28.32,0-7.82-7.82-7.82-20.5,0-28.32l68.52-68.52c3.91-3.91,9.04-5.87,14.16-5.87Z"/>
    </mask>
    <linearGradient id="Degradado_sin_nombre_22-3" data-name="Degradado sin nombre 22" x1="-4917.48" y1="1917.15" x2="-4917.48" y2="1780.19" gradientTransform="translate(-4502.76 -1958.05) rotate(-135)" xlink:href="#Degradado_sin_nombre_22"/>
    <linearGradient id="Degradado_sin_nombre_136-4" data-name="Degradado sin nombre 136" x1="-1822.44" y1="-3571.12" x2="-1696.31" y2="-3697.26" gradientTransform="translate(-3369.14 1886.2) rotate(90)" xlink:href="#Degradado_sin_nombre_136"/>
    <mask id="mask-3" x="194.55" y="56.33" width="108.58" height="108.58" maskUnits="userSpaceOnUse">
      <path class="cls-7" d="m194.55,76.36c0-5.13,1.96-10.25,5.87-14.16,7.82-7.82,20.5-7.82,28.32,0l68.52,68.52c7.83,7.82,7.83,20.5,0,28.32-7.82,7.82-20.5,7.82-28.32,0l-68.52-68.52c-3.91-3.91-5.87-9.04-5.87-14.16Z"/>
    </mask>
    <linearGradient id="Degradado_sin_nombre_22-4" data-name="Degradado sin nombre 22" x1="-3603.06" y1="-2157.23" x2="-3603.06" y2="-2294.19" gradientTransform="translate(-3872.72 1084.55) rotate(135)" xlink:href="#Degradado_sin_nombre_22"/>
  </defs>
  <g>
    <path class="cls-4" d="m399.43,118.75l26.1,80.94,23.15-80.94h24.64l-9.02,31.97,20.53,48.97,26.27-80.94h26.16l-38.28,111.05h-26.46l-19.55-45.37-14.61,45.37h-27.27l-37.74-111.05h26.09Z"/>
    <path class="cls-4" d="m593.87,117.91c29.95,0,45.38,3.24,45.38,40.05,0,18.45-10.04,26.98-30.12,26.98h-39.53c0,22.26,6.57,25.38,22.59,25.38,17.78,0,29.28.14,44.96-2.16v16.83c-16.13,5.47-37.85,5.86-55.21,5.86-28.23,0-36.6-15.35-36.6-57.09,0-48.39,13.64-55.84,48.52-55.84Zm10.44,48.1c7.23,0,10.69-3.13,10.69-9,0-16.91-2.79-19.23-19.96-19.23-18.44,0-25.57.65-25.42,28.23h34.7Z"/>
    <path class="cls-4" d="m653.34,146.77c0-17.15,7.32-29.07,28.86-29.07,17.54,0,48.17,1.28,57.59,4.81v16.09h-51.88c-9.65,0-10.31,3.4-10.31,9.34v6.69c0,8.65,4.4,8.92,10.31,8.92h28.8c20.1,0,28.65,12.1,28.65,28.08v10.98c0,22.8-13.8,28.23-27.19,28.23-17.13,0-52.43-1.75-60.23-5.29v-15.82h54.23c1.24,0,8.93.3,8.93-8.58v-7.03c0-5.64-1.78-8.79-8.93-8.79h-28.5c-19.66,0-30.33-7.39-30.33-28.93v-9.62Z"/>
    <path class="cls-4" d="m811.21,117.7c37.95,0,50.04,14.01,50.04,58.14,0,41.2-11.72,55-50.04,55s-50.04-15.27-50.04-55c0-45.38,12.91-58.14,50.04-58.14Zm0,92.54c18.71,0,25.78-2.49,25.78-34.4,0-34.25-5.77-37.54-25.78-37.54s-25.78,3.23-25.78,37.54c0,31.75,8.04,34.4,25.78,34.4Z"/>
    <path class="cls-4" d="m891.13,188.54c-9.2-5.86-12.2-19.6-12.2-30.68,0-26.56,13.58-39.53,37.64-39.53h66.71v15.37l-14.01,3.76c2.08,4.54,5.02,8.56,5.02,22.59,0,14.74-5.98,38.58-36.7,38.58h-28.23c-3.35,0-8.5.32-8.5,5.4s3.87,6.16,8.5,6.16h37.89c19.06,0,30.71,10.84,30.71,31.42v12.44c0,14.74-6.17,32.21-33.57,32.21h-31.37c-19.66,0-34.19-10.31-34.19-32.21v-15.43l9.24-11.4c-5.86-3.6-9.64-11-9.64-19.79,0-8.07,3.84-16.49,12.71-18.9Zm12.02,63.25c0,12.56,7.59,13.88,14.91,13.88h22.44c11.17,0,13.26-5.8,13.26-13.51v-9.57c0-7.56-2.43-11.67-12.1-11.72h-29.47c-4.95,0-9.04-1.09-9.04-1.09v22.01h0Zm15.61-73.75h14.93c13.14,0,16.61-10.21,16.33-20.18-.41-12.67-3.97-18.93-16.54-18.93h-13.99c-13.78,0-16.31,9.47-16.31,18.93,0,10.25,3.14,20.18,15.58,20.18Z"/>
  </g>
  <g>
    <circle class="cls-1" cx="214.58" cy="177.67" r="29.1"/>
    <g class="cls-14">
      <path class="cls-8" d="m113.27,197.7c-5.13,0-10.25-1.96-14.16-5.87-7.82-7.82-7.82-20.5,0-28.32l68.52-68.52c7.82-7.83,20.5-7.83,28.32,0,7.82,7.82,7.82,20.5,0,28.32l-68.52,68.52c-3.91,3.91-9.04,5.87-14.16,5.87Z"/>
    </g>
    <g class="cls-13">
      <path class="cls-6" d="m234.61,278.99c0,5.13-1.96,10.25-5.87,14.16-7.82,7.82-20.5,7.82-28.32,0l-68.52-68.52c-7.83-7.82-7.83-20.5,0-28.32,7.82-7.82,20.5-7.82,28.32,0l68.52,68.52c3.91,3.91,5.87,9.04,5.87,14.16Z"/>
    </g>
    <g class="cls-11">
      <path class="cls-9" d="m315.89,157.64c5.13,0,10.25,1.96,14.16,5.87,7.82,7.82,7.82,20.5,0,28.32l-68.52,68.52c-7.82,7.83-20.5,7.83-28.32,0-7.82-7.82-7.82-20.5,0-28.32l68.52-68.52c3.91-3.91,9.04-5.87,14.16-5.87Z"/>
    </g>
    <g class="cls-12">
      <path class="cls-2" d="m194.55,76.36c0-5.13,1.96-10.25,5.87-14.16,7.82-7.82,20.5-7.82,28.32,0l68.52,68.52c7.83,7.82,7.83,20.5,0,28.32-7.82,7.82-20.5,7.82-28.32,0l-68.52-68.52c-3.91-3.91-5.87-9.04-5.87-14.16Z"/>
    </g>
  </g>
</svg>